<svg xmlns="http://www.w3.org/2000/svg" xmlns:xlink="http://www.w3.org/1999/xlink" viewBox="0 0 1009.65 999.68" id="hero-icon"><defs><style>.cls-1{fill:#abaeab;}.cls-2{fill:url(#linear-gradient);}.cls-3{fill:#e1dee0;}.cls-4{fill:#013243;}.cls-5{fill:url(#linear-gradient-2);}.cls-6{fill:url(#linear-gradient-3);}.cls-7{fill:#e6a073;}.cls-8{fill:#edc381;}.cls-9{fill:url(#linear-gradient-4);}.cls-10{fill:url(#linear-gradient-5);}.cls-11{fill:url(#linear-gradient-6);}.cls-12{fill:url(#linear-gradient-7);}.cls-13{fill:url(#linear-gradient-8);}</style><linearGradient id="linear-gradient" x1="410.49" y1="850.87" x2="410.49" y2="961.31" gradientUnits="userSpaceOnUse"><stop offset="0.1" stop-color="#abaeab"/><stop offset="0.38" stop-color="#e2e1e1"/></linearGradient><linearGradient id="linear-gradient-2" x1="108.34" y1="846.68" x2="704.74" y2="250.28" gradientUnits="userSpaceOnUse"><stop offset="0" stop-color="#b3e0dc"/><stop offset="0.06" stop-color="#a2d9d4"/><stop offset="0.15" stop-color="#8fd0ca"/><stop offset="0.25" stop-color="#84cbc4"/><stop offset="0.35" stop-color="#80c9c2"/><stop offset="0.66" stop-color="#4cb5ab"/><stop offset="0.74" stop-color="#4ca098"/><stop offset="0.92" stop-color="#4d6b68"/><stop offset="1" stop-color="#4e4f4f"/></linearGradient><linearGradient id="linear-gradient-3" x1="541.86" y1="234.03" x2="1009.65" y2="234.03" gradientUnits="userSpaceOnUse"><stop offset="0" stop-color="#fff"/><stop offset="0.73" stop-color="#edf0f1"/></linearGradient><linearGradient id="linear-gradient-4" x1="775.75" x2="775.75" y2="83.83" gradientUnits="userSpaceOnUse"><stop offset="0.48" stop-color="#4cb5ab"/><stop offset="0.66" stop-color="#4fb6ac"/><stop offset="0.78" stop-color="#58bab0"/><stop offset="0.89" stop-color="#67bfb7"/><stop offset="0.99" stop-color="#7cc8c0"/><stop offset="1" stop-color="#80c9c2"/></linearGradient><linearGradient id="linear-gradient-5" x1="664.98" y1="47.58" x2="967.13" y2="47.58" gradientUnits="userSpaceOnUse"><stop offset="0" stop-color="#f3f3f3"/><stop offset="1" stop-color="#fff"/></linearGradient><linearGradient id="linear-gradient-6" x1="575.48" y1="54.59" x2="567.19" y2="40.23" gradientUnits="userSpaceOnUse"><stop offset="0.16" stop-color="#edc381"/><stop offset="0.49" stop-color="#edb460"/></linearGradient><linearGradient id="linear-gradient-7" x1="598.27" y1="54.59" x2="589.98" y2="40.23" xlink:href="#linear-gradient-6"/><linearGradient id="linear-gradient-8" x1="621.07" y1="54.59" x2="612.78" y2="40.23" xlink:href="#linear-gradient-6"/></defs>
<title>ADCO,us - Hero Banner Icon</title>
  <g id="Layer_2" data-name="Layer 2">
    <g id="computer"><rect class="cls-1" x="252.45" y="960.7" width="320.8" height="38.98"/>
    <polygon class="cls-2" points="551.16 961.31 269.81 961.31 316.29 850.87 515.51 850.87 551.16 961.31"/>
    <rect class="cls-3" y="285.53" width="813.08" height="591.63" rx="16.55"/>
    <path class="cls-4" d="M813.08,294.56a9,9,0,0,0-9-9H9a9,9,0,0,0-9,9V749.15a8.86,8.86,0,0,0,.37,2.42H0v46.27H813.08V751.57h-.37a8.86,8.86,0,0,0,.37-2.42Z"/>
    <rect class="cls-5" x="36.28" y="322.34" width="740.53" height="452.27"/>
    <circle class="cls-1" cx="411.5" cy="833.93" r="14.31"/>
  </g>
  <g id="browser">
    <rect class="cls-6 fade background" x="541.86" width="467.8" height="468.07" rx="17.49"/>
    <rect class="cls-7 fade start" x="581.06" y="119.93" width="392.29" height="123.68" rx="7.72"/>
    <rect class="cls-8 fade body" x="766.12" y="271.21" width="207.59" height="152.58" rx="7.72"/>
    <rect class="cls-7 hero-row delay-3" x="581.06" y="270.51" width="155.02" height="26.6" rx="7.1"/>
    <rect class="cls-7 hero-row delay-6" x="581.06" y="312.65" width="155.02" height="26.6" rx="7.1"/>
    <rect class="cls-7 hero-row delay-9" x="581.06" y="354.78" width="155.02" height="26.6" rx="7.1"/>
    <rect class="cls-7 hero-row delay-12" x="581.06" y="396.92" width="155.02" height="26.6" rx="7.1"/>
    <path class="cls-9 fade menu" d="M1009.65,16.36V83.83H541.85V16.36A16.37,16.37,0,0,1,558.21,0H993.3A16.36,16.36,0,0,1,1009.65,16.36Z"/>
    <rect class="cls-10 fade bar" x="664.98" y="34.28" width="302.15" height="26.6" rx="7.1"/>
    <circle class="cls-11 fade hero-btn delay-3" cx="571.34" cy="47.41" r="8.29"/>
    <circle class="cls-12 fade hero-btn delay-6" cx="594.13" cy="47.41" r="8.29"/>
    <circle class="cls-13 fade hero-btn delay-9" cx="616.92" cy="47.41" r="8.29"/>
  </g>
</g>
</svg>
