<svg xmlns="http://www.w3.org/2000/svg" xmlns:xlink="http://www.w3.org/1999/xlink" viewBox="0 0 938.04 833.92" id="hero-icon"><defs><style>.cls-1{fill:#aaaeab;}.cls-2{fill:url(#linear-gradient);}.cls-3{fill:#e2dfe1;}.cls-4{fill:#003243;}.cls-5{fill:url(#linear-gradient-2);}.cls-6{fill:#f2f2f2;}.cls-8{fill:url(#linear-gradient-4);}.cls-9{fill:url(#linear-gradient-5);}.cls-10{fill:url(#linear-gradient-6);}.cls-11{fill:#e59f71;}.cls-12{fill:#eec584;}.cls-13{fill:url(#linear-gradient-7);}.cls-14{fill:#efb462;}.cls-15{fill:url(#linear-gradient-8);}.cls-16{fill:url(#linear-gradient-9);}.cls-17{fill:url(#linear-gradient-10);}</style><linearGradient id="linear-gradient" x1="396.18" y1="690.3" x2="396.18" y2="796.89" gradientUnits="userSpaceOnUse"><stop offset="0.1" stop-color="#aaaeab"></stop><stop offset="0.38" stop-color="#e2e1e1"></stop></linearGradient><linearGradient id="linear-gradient-2" x1="104.56" y1="686.26" x2="680.18" y2="110.64" gradientUnits="userSpaceOnUse"><stop offset="0" stop-color="#b2dfdb"></stop><stop offset="0.06" stop-color="#a2d9d4"></stop><stop offset="0.15" stop-color="#8fd1cb"></stop><stop offset="0.25" stop-color="#84cdc6"></stop><stop offset="0.35" stop-color="#80cbc4"></stop><stop offset="0.66" stop-color="#4db6ac"></stop><stop offset="0.86" stop-color="#4da199"></stop><stop offset="0.91" stop-color="#4d6c69"></stop><stop offset="1" stop-color="#4d4d4d"></stop></linearGradient><linearGradient id="linear-gradient-3" x1="770" y1="250.14" x2="938.04" y2="250.14" gradientUnits="userSpaceOnUse"><stop offset="0" stop-color="#fff"></stop><stop offset="0.73" stop-color="#ecf0f1"></stop></linearGradient><linearGradient id="linear-gradient-4" x1="486.55" y1="226.76" x2="938.04" y2="226.76" xlink:href="#linear-gradient-3"></linearGradient><linearGradient id="linear-gradient-5" x1="491.61" y1="447.45" x2="932.98" y2="6.08" gradientUnits="userSpaceOnUse"><stop offset="0" stop-color="#f2f2f2"></stop><stop offset="1" stop-color="#fff"></stop></linearGradient><linearGradient id="linear-gradient-6" x1="712.29" x2="712.29" y2="80.9" gradientUnits="userSpaceOnUse"><stop offset="0.48" stop-color="#4db6ac"></stop><stop offset="0.66" stop-color="#50b7ad"></stop><stop offset="0.79" stop-color="#59bbb2"></stop><stop offset="0.89" stop-color="#68c1b9"></stop><stop offset="0.99" stop-color="#7dcac3"></stop><stop offset="1" stop-color="#80cbc4"></stop></linearGradient><linearGradient id="linear-gradient-7" x1="605.38" y1="46.81" x2="897" y2="46.81" xlink:href="#linear-gradient-5"></linearGradient><linearGradient id="linear-gradient-8" x1="519" y1="53.57" x2="511" y2="39.71" gradientUnits="userSpaceOnUse"><stop offset="0.16" stop-color="#eec584"></stop><stop offset="0.49" stop-color="#efb462"></stop></linearGradient><linearGradient id="linear-gradient-9" x1="541" y1="53.57" x2="533" y2="39.71" xlink:href="#linear-gradient-8"></linearGradient><linearGradient id="linear-gradient-10" x1="563" y1="53.57" x2="555" y2="39.71" xlink:href="#linear-gradient-8"></linearGradient></defs>
  <title>main</title>
  <g id="Layer_2" data-name="Layer 2">
    <g id="Layer_1-2" data-name="Layer 1">
      <rect class="cls-1" x="243.65" y="796.3" width="309.62" height="37.62"></rect>
      <polygon class="cls-2" points="531.95 796.89 260.4 796.89 305.26 690.3 497.54 690.3 531.95 796.89"></polygon>
      <rect class="cls-3" y="144.66" wiQdth="784.74" height="571.01" rx="16.55"></rect>
      <path class="cls-4" d="M784.74,153.38a8.71,8.71,0,0,0-8.71-8.72H8.71A8.71,8.71,0,0,0,0,153.38V592.13a8.59,8.59,0,0,0,.36,2.33H0v44.66H784.74V594.46h-.35a8.58,8.58,0,0,0,.35-2.33Z"></path>
      <rect class="cls-5" x="35.01" y="180.19" width="714.72" height="436.51"></rect>
      <circle class="cls-1" cx="397.16" cy="673.95" r="13.81"></circle>
      <path class="cls-6 fade" d="M775.27,132.63c-1.21.08-2.44.12-3.67.12h-371c-1.24,0-2.47,0-3.68-.12Z"></path>
      <rect class="cls-8 fade" x="486.55" y="0.89" width="451.49" height="451.75" rx="17.49"></rect>
      <path class="cls-9 fade background" d="M938,18.37V435.15a17.49,17.49,0,0,1-17.49,17.49H504a17.49,17.49,0,0,1-17.49-17.49V18.37A17.49,17.49,0,0,1,504,.89H920.55A17.49,17.49,0,0,1,938,18.37Z" style="transform: translateY(0px); opacity: 1;"></path>
      <path class="cls-10" d="M938,15.79V80.9H486.55V15.79A15.78,15.78,0,0,1,502.33,0H922.25A15.79,15.79,0,0,1,938,15.79Z" style="transform: translateY(0px); opacity: 1;"></path>
      <rect class="cls-11 fade start" x="524.38" y="116.64" width="378.62" height="119.37" rx="7.72" style="transform: translateY(0px); opacity: 1;"></rect>
      <rect class="cls-12 fade body" x="703" y="262.64" width="200.36" height="147.26" rx="7.72" style="transform: translateY(0px); opacity: 1;"></rect>
      <rect class="cls-11 hero-row fade delay-3" x="524.38" y="261.97" width="149.62" height="25.67" rx="7.72" style="transform: translateX(0px); opacity: 1;"></rect>
      <rect class="cls-13" x="605.38" y="33.97" width="291.62" height="25.67" rx="7.72" style="transform: translateY(0px); opacity: 1;"></rect>
      <rect class="cls-11 hero-row fade delay-6" x="524.38" y="302.64" width="149.62" height="25.67" rx="7.72" style="transform: translateX(0px); opacity: 1;"></rect>
      <rect class="cls-11 hero-row fade delay-9" x="524.38" y="343.3" width="149.62" height="25.67" rx="7.72" style="transform: translateX(0px); opacity: 1;"></rect>
      <rect class="cls-11 hero-row fade delay-12" x="524.38" y="383.97" width="149.62" height="25.67" rx="7.72" style="transform: translateX(0px); opacity: 1;"></rect>
      <circle class="cls-15 fade hero-btn delay-3" cx="515" cy="46.64" r="8" style="transform: translateX(0px); opacity: 1;"></circle>
      <circle class="cls-16 fade hero-btn delay-6" cx="537" cy="46.64" r="8" style="transform: translateX(0px); opacity: 1;"></circle>
      <circle class="cls-17 fade hero-btn delay-9" cx="559" cy="46.64" r="8" style="transform: translateX(0px); opacity: 1;"></circle>
    </g>
  </g>
</svg>
